<?xml version="1.0" encoding="UTF-8"?><svg xmlns="http://www.w3.org/2000/svg" xmlns:xlink="http://www.w3.org/1999/xlink" viewBox="0 0 514.04 197.15"><defs><linearGradient id="linear-gradient" x1="-2514.19" y1="289.24" x2="-2514.19" y2="488.96" gradientTransform="translate(2999.58 -297.25)" gradientUnits="userSpaceOnUse"><stop offset=".24" stop-color="#00c0b9"></stop><stop offset=".73" stop-color="#75d3d0"></stop></linearGradient><linearGradient id="linear-gradient-2" x1="355.62" y1="98.05" x2="514.04" y2="98.05" gradientTransform="translate(336.78 532.88) rotate(-90)" gradientUnits="userSpaceOnUse"><stop offset=".31" stop-color="#00c0b9"></stop><stop offset="1" stop-color="#75d3d0"></stop></linearGradient><linearGradient id="linear-gradient-3" x1="384.27" y1="688.57" x2="384.27" y2="483.01" gradientTransform="translate(0 687.13) scale(1 -1)" gradientUnits="userSpaceOnUse"><stop offset=".18" stop-color="#00c0b9"></stop><stop offset=".68" stop-color="#75d3d0"></stop></linearGradient><linearGradient id="linear-gradient-4" x1="271.65" y1="110.33" x2="309.75" y2="71.67" gradientUnits="userSpaceOnUse"><stop offset=".24" stop-color="#ff008e"></stop><stop offset=".73" stop-color="#ff008b"></stop></linearGradient><linearGradient id="linear-gradient-5" x1="245.51" y1="139.01" x2="334.17" y2="43.97" gradientUnits="userSpaceOnUse"><stop offset=".42" stop-color="#fff"></stop><stop offset=".7" stop-color="#c3006e"></stop></linearGradient><linearGradient id="linear-gradient-6" x1="186.79" y1="98.99" x2="379.18" y2="98.99" xlink:href="#linear-gradient-4"></linearGradient><linearGradient id="linear-gradient-7" x1="186.79" y1="98.99" x2="379.18" y2="98.99" xlink:href="#linear-gradient-4"></linearGradient><linearGradient id="linear-gradient-8" x1="113.47" y1="201.55" x2="145.09" y2="42.09" gradientUnits="userSpaceOnUse"><stop offset="0" stop-color="#00c0b9"></stop><stop offset="1" stop-color="#75d3d0"></stop></linearGradient><linearGradient id="linear-gradient-9" x1="29.85" y1="-8.77" x2="73.84" y2="158.94" xlink:href="#linear-gradient-8"></linearGradient><linearGradient id="linear-gradient-10" x1="29.85" y1="-8.77" x2="73.84" y2="158.94" xlink:href="#linear-gradient-8"></linearGradient></defs><g class="cls-12"><g id="Layer_2"><g id="Layer_1-2"><path class="cls-1" d="m456.75,1.04h32.05c13.93,0,25.25,11.31,25.25,25.25v170.86h-57.29V1.04h0Z" transform="translate(970.79 198.18) rotate(-180)"></path><path class="cls-8" d="m406.19,18.84h57.29v133.46c0,13.78-11.18,24.96-24.96,24.96h-32.33V18.84h0Z" transform="translate(532.88 -336.78) rotate(90)"></path><path class="cls-6" d="m355.62,0h32.05c13.93,0,25.25,11.31,25.25,25.25v170.86h-57.29V0h0Z"></path><g class="cls-2"><path class="cls-1" d="m456.75,1.04h32.05c13.93,0,25.25,11.31,25.25,25.25v170.86h-57.29V1.04h0Z" transform="translate(970.79 198.18) rotate(-180)"></path><path class="cls-8" d="m406.19,18.84h57.29v133.46c0,13.78-11.18,24.96-24.96,24.96h-32.33V18.84h0Z" transform="translate(532.88 -336.78) rotate(90)"></path><path class="cls-6" d="m355.62,0h32.05c13.93,0,25.25,11.31,25.25,25.25v170.86h-57.29V0h0Z"></path></g><path class="cls-7" d="m378.84,196.38l-.92.72-65.78-.03s-.06-.06-.12-.14c-.06-.06-.09-.12-.17-.21-.09-.14-.24-.32-.43-.54-.29-.34-.66-.81-1.12-1.38-.06-.06-.09-.12-.15-.18-1.22-1.53-2.97-3.7-5.11-6.31-.03-.05-.06-.09-.11-.15-1.16-1.42-2.42-2.97-3.73-4.59-.46-.54-.9-1.09-1.36-1.65-12.7-15.58-30.93-37.61-32.3-37.61-.72,0-3.21.08-6.18.2-.23.03-.44.03-.67.03-.15,0-.31.02-.47.02-.34.02-.66.02-1.01.05h-.17c-.95.02-1.91.06-2.86.11-.34.02-.66.02-.98.03-.32.03-.63.03-.95.05-1.29.05-2.49.11-3.41.12-.31.02-.63.02-.87.05-.09,0-.18.02-.28.02-.6,0-.93.02-.93.02v.03s-.28,21.38-15.61,36.73c-.28.28-.54.54-.83.81-.55.54-1.12,1.06-1.71,1.56-.02.03-.02,0-.02,0-.6.54-1.19,1.04-1.84,1.53-1.91,1.48-3.99,2.86-6.28,4.15-.99.55-2.04,1.09-3.11,1.59-1.07.49-2.19.96-3.34,1.42h-.02c-.43.17-.87.34-1.32.49-.89.32-1.81.61-2.74.9-.77.23-1.53.46-2.33.66-6.32,1.64-13.68,2.48-22.22,2.2-.02-.89-.72-26.31-.6-46.21.02-3.75.08-7.32.17-10.45,0-.49.02-.96.03-1.44.05-1.44.11-2.76.17-3.96.05-.8.11-1.55.15-2.23.02-.35.06-.69.08-.99.89-9.6,5.57-21.9,14.57-29.77.89-.8,1.84-1.55,2.83-2.23.99-.7,2.02-1.33,3.09-1.91.54-.29,1.09-.57,1.65-.83.98-.46,1.99-.87,3.05-1.22.78-.28,1.59-.51,2.42-.72.61-.15,1.24-.29,1.88-.41,1.91-.37,3.92-.55,6.05-.55s4.24.02,6.28.03c.69,0,1.36,0,2.02.02,3.49.02,6.81.06,9.92.09,3.14.05,6.11.11,8.89.17,9.28.18,16.68.4,22.39.4,1.3,0,2.65-.11,4.01-.29,1.36-.21,2.76-.49,4.1-.89.54-.14,1.1-.34,1.64-.52.8-.26,1.61-.6,2.39-.95h.03c.66-.29,1.29-.61,1.91-.96.02.02.03,0,.03,0,.57-.29,1.09-.61,1.59-.95.4-.23.77-.47,1.12-.73.87-.63,1.68-1.3,2.45-2.05.28-.24.54-.49.77-.77.52-.51.96-1.04,1.38-1.62.26-.28.44-.55.63-.84.23-.29.41-.6.58-.92.2-.31.38-.61.54-.95.34-.63.63-1.29.87-1.97.15-.35.28-.7.35-1.06.11-.31.21-.61.28-.95.05-.09.06-.2.08-.32.09-.31.15-.63.18-.93.06-.37.12-.73.17-1.13.11-.95.17-1.9.17-2.85,0-.55-.02-1.12-.06-1.67-.02-.43-.06-.86-.12-1.3,0-.03,0-.08-.03-.09-.02-.2-.03-.38-.08-.57-.05-.35-.11-.67-.18-1.03-.02-.15-.06-.29-.08-.41-.11-.47-.23-.95-.38-1.42-.31-1.03-.67-2.02-1.15-2.98-.23-.47-.47-.95-.77-1.41-.26-.46-.55-.93-.89-1.36-.02-.02-.05-.05-.05-.06-.61-.87-1.32-1.67-2.11-2.43s-1.65-1.47-2.62-2.1c-.95-.64-1.99-1.21-3.09-1.71-.05,0-.08-.03-.09-.05-.55-.23-1.13-.47-1.73-.67-.31-.11-.61-.21-.93-.32-.18-.05-.35-.11-.54-.15-.14-.05-.28-.08-.43-.12-2.89-.77-6.18-1.15-9.93-.99-18.83.7-92.77.7-92.77.7l7.73-51.99s1.97-.02,5.39-.02c16.67-.11,67.62-.32,87.32.02,2.97.05,6.37.23,10.09.61.92.09,1.87.2,2.82.32.96.12,1.94.24,2.95.4.98.14,1.97.31,3,.49,1.01.18,2.05.37,3.11.58.51.12,1.03.23,1.56.32,1.03.23,2.1.47,3.15.75.54.14,1.07.26,1.61.41,2.66.72,5.36,1.55,8.07,2.51,1.62.58,3.23,1.22,4.84,1.9,1.62.7,3.23,1.44,4.81,2.23,4.73,2.4,9.32,5.31,13.53,8.86.95.78,1.88,1.61,2.77,2.45.44.43.9.87,1.33,1.32,9.21,9.26,16.07,22.15,17.91,39.99.37,3.69.51,7.16.43,10.48-.03.41-.03.83-.05,1.24-.11,2.57-.32,5-.67,7.35-.18,1.27-.41,2.53-.66,3.77-.29,1.36-.61,2.68-.98,3.96-.26.96-.55,1.91-.86,2.85-.26.73-.51,1.44-.77,2.14-.17.43-.35.86-.51,1.27-.21.54-.44,1.06-.67,1.58-.23.49-.43.96-.66,1.42-.52,1.09-1.07,2.16-1.65,3.17-.2.37-.41.75-.61,1.1-1.07,1.82-2.23,3.52-3.44,5.13-.31.4-.6.78-.92,1.18-.31.37-.61.73-.92,1.12-.31.41-.66.8-1.01,1.19-.78.89-1.59,1.74-2.42,2.56-.44.43-.9.89-1.36,1.32-.98.93-1.97,1.79-2.97,2.6-.98.8-1.97,1.56-2.97,2.28-.03.05-.08.06-.09.09-.63.43-1.24.86-1.84,1.27-.98.64-1.93,1.24-2.85,1.79-.31.21-.63.4-.93.54-.61.35-1.19.69-1.79,1.01-.29.17-.6.34-.87.46-.55.29-1.09.55-1.62.83-.29.14-.55.26-.81.37-.24.12-.51.23-.75.35-.14.06-.26.12-.35.17-.51.2-.99.41-1.45.6-.44.2-.89.37-1.3.54-.15.06-.32.12-.46.18-1.9.69-3.05.99-3.05.99l13.04,14.42,9.57,10.59,16.12,17.85,15.12,16.73,5.19,5.74Z"></path><path class="cls-3" d="m378.84,196.38l-.92.72-65.78-.03s-.06-.06-.12-.14c-.06-.06-.09-.12-.17-.21-.09-.14-.24-.32-.43-.54-.29-.34-.66-.81-1.12-1.38-.06-.06-.09-.12-.15-.18-1.22-1.53-2.97-3.7-5.11-6.31-.03-.05-.06-.09-.11-.15-1.16-1.42-2.42-2.97-3.73-4.59-.46-.54-.9-1.09-1.36-1.65-12.7-15.58-30.93-37.61-32.3-37.61-.72,0-3.21.08-6.18.2-.23.03-.44.03-.67.03-.15,0-.31.02-.47.02-.34.02-.66.02-1.01.05h-.17c-.95.02-1.91.06-2.86.11-.34.02-.66.02-.98.03-.32.03-.63.03-.95.05-1.29.05-2.49.11-3.41.12-.31.02-.63.02-.87.05-.09,0-.18.02-.28.02-.6,0-.93.02-.93.02v.03s-.28,21.38-15.61,36.73c-.28.28-.54.54-.83.81-.55.54-1.12,1.06-1.71,1.56-.02.03-.02,0-.02,0-.6.54-1.19,1.04-1.84,1.53-1.91,1.48-3.99,2.86-6.28,4.15-.99.55-2.04,1.09-3.11,1.59-1.07.49-2.19.96-3.34,1.42h-.02c-.43.17-.87.34-1.32.49-.89.32-1.81.61-2.74.9-.77.23-1.53.46-2.33.66-6.32,1.64-13.68,2.48-22.22,2.2-.02-.89-.72-26.31-.6-46.21.02-3.75.08-7.32.17-10.45,0-.49.02-.96.03-1.44.05-1.44.11-2.76.17-3.96.05-.8.11-1.55.15-2.23.02-.35.06-.69.08-.99.89-9.6,5.57-21.9,14.57-29.77.89-.8,1.84-1.55,2.83-2.23.99-.7,2.02-1.33,3.09-1.91.54-.29,1.09-.57,1.65-.83.98-.46,1.99-.87,3.05-1.22.78-.28,1.59-.51,2.42-.72.61-.15,1.24-.29,1.88-.41,1.91-.37,3.92-.55,6.05-.55s4.24.02,6.28.03c.69,0,1.36,0,2.02.02,3.49.02,6.81.06,9.92.09,3.14.05,6.11.11,8.89.17,9.28.18,16.68.4,22.39.4,1.3,0,2.65-.11,4.01-.29,1.36-.21,2.76-.49,4.1-.89.54-.14,1.1-.34,1.64-.52.8-.26,1.61-.6,2.39-.95h.03c.66-.29,1.29-.61,1.91-.96.02.02.03,0,.03,0,.57-.29,1.09-.61,1.59-.95.4-.23.77-.47,1.12-.73.87-.63,1.68-1.3,2.45-2.05.28-.24.54-.49.77-.77.52-.51.96-1.04,1.38-1.62.26-.28.44-.55.63-.84.23-.29.41-.6.58-.92.2-.31.38-.61.54-.95.34-.63.63-1.29.87-1.97.15-.35.28-.7.35-1.06.11-.31.21-.61.28-.95.05-.09.06-.2.08-.32.09-.31.15-.63.18-.93.06-.37.12-.73.17-1.13.11-.95.17-1.9.17-2.85,0-.55-.02-1.12-.06-1.67-.02-.43-.06-.86-.12-1.3,0-.03,0-.08-.03-.09-.02-.2-.03-.38-.08-.57-.05-.35-.11-.67-.18-1.03-.02-.15-.06-.29-.08-.41-.11-.47-.23-.95-.38-1.42-.31-1.03-.67-2.02-1.15-2.98-.23-.47-.47-.95-.77-1.41-.26-.46-.55-.93-.89-1.36-.02-.02-.05-.05-.05-.06-.61-.87-1.32-1.67-2.11-2.43s-1.65-1.47-2.62-2.1c-.95-.64-1.99-1.21-3.09-1.71-.05,0-.08-.03-.09-.05-.55-.23-1.13-.47-1.73-.67-.31-.11-.61-.21-.93-.32-.18-.05-.35-.11-.54-.15-.14-.05-.28-.08-.43-.12-2.89-.77-6.18-1.15-9.93-.99-18.83.7-92.77.7-92.77.7l7.73-51.99s1.97-.02,5.39-.02c16.67-.11,67.62-.32,87.32.02,2.97.05,6.37.23,10.09.61.92.09,1.87.2,2.82.32.96.12,1.94.24,2.95.4.98.14,1.97.31,3,.49,1.01.18,2.05.37,3.11.58.51.12,1.03.23,1.56.32,1.03.23,2.1.47,3.15.75.54.14,1.07.26,1.61.41,2.66.72,5.36,1.55,8.07,2.51,1.62.58,3.23,1.22,4.84,1.9,1.62.7,3.23,1.44,4.81,2.23,4.73,2.4,9.32,5.31,13.53,8.86.95.78,1.88,1.61,2.77,2.45.44.43.9.87,1.33,1.32,9.21,9.26,16.07,22.15,17.91,39.99.37,3.69.51,7.16.43,10.48-.03.41-.03.83-.05,1.24-.11,2.57-.32,5-.67,7.35-.18,1.27-.41,2.53-.66,3.77-.29,1.36-.61,2.68-.98,3.96-.26.96-.55,1.91-.86,2.85-.26.73-.51,1.44-.77,2.14-.17.43-.35.86-.51,1.27-.21.54-.44,1.06-.67,1.58-.23.49-.43.96-.66,1.42-.52,1.09-1.07,2.16-1.65,3.17-.2.37-.41.75-.61,1.1-1.07,1.82-2.23,3.52-3.44,5.13-.31.4-.6.78-.92,1.18-.31.37-.61.73-.92,1.12-.31.41-.66.8-1.01,1.19-.78.89-1.59,1.74-2.42,2.56-.44.43-.9.89-1.36,1.32-.98.93-1.97,1.79-2.97,2.6-.98.8-1.97,1.56-2.97,2.28-.03.05-.08.06-.09.09-.63.43-1.24.86-1.84,1.27-.98.64-1.93,1.24-2.85,1.79-.31.21-.63.4-.93.54-.61.35-1.19.69-1.79,1.01-.29.17-.6.34-.87.46-.55.29-1.09.55-1.62.83-.29.14-.55.26-.81.37-.24.12-.51.23-.75.35-.14.06-.26.12-.35.17-.51.2-.99.41-1.45.6-.44.2-.89.37-1.3.54-.15.06-.32.12-.46.18-1.9.69-3.05.99-3.05.99l13.04,14.42,9.57,10.59,16.12,17.85,15.12,16.73,5.19,5.74Z"></path><path class="cls-9" d="m379.13,196.59c-.06.11-.14.2-.29.28h-.02s-.26.12-.78.2c-.05,0-.09.03-.12.03-.44.06-50.6,0-50.6,0h-15.18v-.03s-.06-.06-.12-.14c-.06-.06-.09-.12-.17-.21-.09-.14-.24-.32-.43-.54-.29-.34-.66-.81-1.12-1.38-.06-.06-.09-.12-.15-.18-1.81-2.04-3.44-4.16-5.11-6.31-.03-.05-.06-.09-.11-.15-1.16-1.42-2.42-2.97-3.73-4.59-.46-.54-.9-1.09-1.36-1.65-12.7-15.58-30.93-37.61-32.3-37.61-.72,0-3.21.08-6.18.2-.23.03-.44.03-.67.03-.15,0-.31.02-.47.02-.34.02-.66.02-1.01.05h-.17c-.95.02-1.91.06-2.86.11-.34.02-.66.02-.98.03-.32.03-.63.03-.95.05-1.29.05-2.49.11-3.41.12-.31.02-.63.02-.87.05-.09,0-.18.02-.28.02-.6.02-.93.05-.93.05,0,0-.28,21.38-15.61,36.73-.28.28-.54.54-.83.81-.55.54-1.12,1.06-1.71,1.56-.02.03-.02,0-.02,0-.6.54-1.19,1.04-1.84,1.53-1.9,1.48-3.98,2.89-6.28,4.15-.99.55-2.04,1.09-3.11,1.59-1.07.49-2.19.96-3.34,1.42h-.02c-.43.17-.87.34-1.32.49-.89.32-1.81.61-2.74.9-.77.23-1.53.46-2.33.66-6.32,1.67-13.68,2.51-22.22,2.23v-.03c-.02-.89-.72-26.31-.6-46.21.02-3.75.08-7.32.17-10.45,0-.49.02-.96.03-1.44.05-1.44.11-2.76.17-3.96.05-.8.11-1.55.15-2.23.02-.35.06-.69.08-.99.89-9.6,5.57-21.9,14.57-29.77.89-.8,1.84-1.53,2.83-2.23.99-.67,2.02-1.32,3.09-1.91.54-.29,1.09-.57,1.65-.83.98-.46,1.99-.86,3.05-1.22.78-.28,1.59-.51,2.42-.72.61-.15,1.24-.29,1.88-.41,1.91-.35,3.92-.54,6.05-.54s4.24,0,6.28.02c.69,0,1.36,0,2.02.02,3.49.02,6.81.06,9.92.09,3.14.06,6.11.12,8.89.17,9.28.21,16.68.41,22.39.41,1.3,0,2.65-.11,4.01-.31,1.36-.18,2.76-.47,4.1-.89.54-.14,1.1-.34,1.64-.52.8-.26,1.61-.6,2.39-.95h.03c.66-.29,1.29-.61,1.91-.96.02.02.03,0,.03,0,.57-.29,1.09-.61,1.59-.95.4-.23.77-.47,1.12-.73.87-.63,1.68-1.3,2.45-2.05.28-.24.54-.49.77-.77.52-.51.96-1.04,1.38-1.62.26-.28.44-.55.63-.84.23-.29.41-.6.58-.92.2-.31.38-.61.54-.95.34-.63.63-1.29.87-1.97.15-.35.28-.7.35-1.06.11-.31.21-.61.28-.95.05-.09.06-.2.08-.32.09-.31.15-.63.18-.93.06-.37.12-.73.17-1.13.11-.95.17-1.9.17-2.85,0-.55-.02-1.12-.06-1.67-.02-.43-.06-.86-.12-1.3,0-.03,0-.08-.03-.09-.02-.2-.03-.38-.08-.57-.05-.35-.11-.67-.18-1.03-.02-.15-.06-.29-.08-.41-.11-.47-.23-.95-.38-1.42-.31-1.03-.67-2.02-1.15-2.98-.23-.47-.47-.95-.77-1.41-.26-.46-.55-.93-.89-1.36-.02-.02-.05-.05-.05-.06-.63-.87-1.33-1.67-2.11-2.43-.8-.77-1.65-1.47-2.62-2.1-.95-.64-1.99-1.21-3.09-1.71-.05,0-.08-.03-.09-.05-.55-.23-1.13-.47-1.73-.67-.31-.11-.61-.21-.93-.32-.18-.05-.35-.11-.54-.15-.14-.03-.28-.08-.43-.11v-.02C270.14,24.28,234.98,2.85,192.79,1c16.67-.11,67.62-.32,87.32.02,2.97.05,6.37.23,10.09.61.92.09,1.87.2,2.82.32.96.12,1.94.24,2.95.4.98.14,1.97.31,3,.49,1.01.18,2.05.37,3.11.58.51.12,1.03.23,1.56.32,1.03.24,2.1.47,3.15.75.54.14,1.07.26,1.61.41,2.66.72,5.36,1.55,8.07,2.51,1.62.58,3.23,1.22,4.84,1.9,1.62.7,3.23,1.44,4.81,2.23,4.73,2.4,9.32,5.31,13.53,8.86.95.78,1.88,1.61,2.77,2.45.44.43.9.87,1.33,1.32,9.21,9.26,16.07,22.15,17.91,39.99.37,3.69.51,7.16.43,10.48-.03.41-.03.83-.05,1.24-.11,2.57-.32,5-.67,7.35-.18,1.27-.41,2.53-.66,3.77-.29,1.36-.61,2.68-.98,3.96-.26.96-.55,1.91-.86,2.85-.26.73-.51,1.44-.77,2.14-.17.43-.35.86-.51,1.27-.21.54-.44,1.06-.67,1.58-.23.49-.43.96-.66,1.42-.52,1.09-1.07,2.16-1.65,3.17-.2.37-.41.75-.61,1.1-1.07,1.82-2.23,3.52-3.44,5.13-.31.4-.6.78-.92,1.18-.31.37-.61.73-.92,1.12-.31.41-.66.8-1.01,1.19-.78.89-1.59,1.74-2.42,2.56-.44.43-.9.89-1.36,1.32-.98.93-1.97,1.79-2.97,2.6-.98.8-1.97,1.56-2.97,2.28-.03.05-.08.06-.09.09-.63.43-1.24.86-1.84,1.27-.98.64-1.93,1.24-2.85,1.79-.31.21-.63.4-.93.54-.61.35-1.19.69-1.79,1.01-.29.17-.6.34-.87.46-.55.29-1.09.55-1.62.83-.29.14-.55.26-.81.37-.24.12-.51.23-.75.35-.14.06-.26.12-.35.17-.51.2-.99.41-1.45.6-.44.2-.89.37-1.3.54-.15.06-.32.12-.46.18-1.9.69-3.05.99-3.05.99l13.04,14.42s.02.08.02.11v.05c.46,2.14.93,4.27,2.13,6.11,1.71,2.57,4.38,3.55,7.19,4.27.08.02.15.05.23.06l16.12,17.85c.23.37.44.7.69,1.06,0,.03.02.06.05.09l.03.06c2.53,3.81,5.53,7.22,8.75,10.48.9.92,2.27,2.13,3.75,3.41l.02.02c.6.52,1.22,1.07,1.84,1.61,3.06,2.66,5.92,5.28,5.48,5.95Z"></path><g class="cls-2"><path class="cls-7" d="m378.84,196.38l-.92.72-65.78-.03s-.06-.06-.12-.14c-.06-.06-.09-.12-.17-.21-.09-.14-.24-.32-.43-.54-.29-.34-.66-.81-1.12-1.38-.06-.06-.09-.12-.15-.18-1.22-1.53-2.97-3.7-5.11-6.31-.03-.05-.06-.09-.11-.15-1.16-1.42-2.42-2.97-3.73-4.59-.46-.54-.9-1.09-1.36-1.65-12.7-15.58-30.93-37.61-32.3-37.61-.72,0-3.21.08-6.18.2-.23.03-.44.03-.67.03-.15,0-.31.02-.47.02-.34.02-.66.02-1.01.05h-.17c-.95.02-1.91.06-2.86.11-.34.02-.66.02-.98.03-.32.03-.63.03-.95.05-1.29.05-2.49.11-3.41.12-.31.02-.63.02-.87.05-.09,0-.18.02-.28.02-.6,0-.93.02-.93.02v.03s-.28,21.38-15.61,36.73c-.28.28-.54.54-.83.81-.55.54-1.12,1.06-1.71,1.56-.02.03-.02,0-.02,0-.6.54-1.19,1.04-1.84,1.53-1.91,1.48-3.99,2.86-6.28,4.15-.99.55-2.04,1.09-3.11,1.59-1.07.49-2.19.96-3.34,1.42h-.02c-.43.17-.87.34-1.32.49-.89.32-1.81.61-2.74.9-.77.23-1.53.46-2.33.66-6.32,1.64-13.68,2.48-22.22,2.2-.02-.89-.72-26.31-.6-46.21.02-3.75.08-7.32.17-10.45,0-.49.02-.96.03-1.44.05-1.44.11-2.76.17-3.96.05-.8.11-1.55.15-2.23.02-.35.06-.69.08-.99.89-9.6,5.57-21.9,14.57-29.77.89-.8,1.84-1.55,2.83-2.23.99-.7,2.02-1.33,3.09-1.91.54-.29,1.09-.57,1.65-.83.98-.46,1.99-.87,3.05-1.22.78-.28,1.59-.51,2.42-.72.61-.15,1.24-.29,1.88-.41,1.91-.37,3.92-.55,6.05-.55s4.24.02,6.28.03c.69,0,1.36,0,2.02.02,3.49.02,6.81.06,9.92.09,3.14.05,6.11.11,8.89.17,9.28.18,16.68.4,22.39.4,1.3,0,2.65-.11,4.01-.29,1.36-.21,2.76-.49,4.1-.89.54-.14,1.1-.34,1.64-.52.8-.26,1.61-.6,2.39-.95h.03c.66-.29,1.29-.61,1.91-.96.02.02.03,0,.03,0,.57-.29,1.09-.61,1.59-.95.4-.23.77-.47,1.12-.73.87-.63,1.68-1.3,2.45-2.05.28-.24.54-.49.77-.77.52-.51.96-1.04,1.38-1.62.26-.28.44-.55.63-.84.23-.29.41-.6.58-.92.2-.31.38-.61.54-.95.34-.63.63-1.29.87-1.97.15-.35.28-.7.35-1.06.11-.31.21-.61.28-.95.05-.09.06-.2.08-.32.09-.31.15-.63.18-.93.06-.37.12-.73.17-1.13.11-.95.17-1.9.17-2.85,0-.55-.02-1.12-.06-1.67-.02-.43-.06-.86-.12-1.3,0-.03,0-.08-.03-.09-.02-.2-.03-.38-.08-.57-.05-.35-.11-.67-.18-1.03-.02-.15-.06-.29-.08-.41-.11-.47-.23-.95-.38-1.42-.31-1.03-.67-2.02-1.15-2.98-.23-.47-.47-.95-.77-1.41-.26-.46-.55-.93-.89-1.36-.02-.02-.05-.05-.05-.06-.61-.87-1.32-1.67-2.11-2.43s-1.65-1.47-2.62-2.1c-.95-.64-1.99-1.21-3.09-1.71-.05,0-.08-.03-.09-.05-.55-.23-1.13-.47-1.73-.67-.31-.11-.61-.21-.93-.32-.18-.05-.35-.11-.54-.15-.14-.05-.28-.08-.43-.12-2.89-.77-6.18-1.15-9.93-.99-18.83.7-92.77.7-92.77.7l7.73-51.99s1.97-.02,5.39-.02c16.67-.11,67.62-.32,87.32.02,2.97.05,6.37.23,10.09.61.92.09,1.87.2,2.82.32.96.12,1.94.24,2.95.4.98.14,1.97.31,3,.49,1.01.18,2.05.37,3.11.58.51.12,1.03.23,1.56.32,1.03.23,2.1.47,3.15.75.54.14,1.07.26,1.61.41,2.66.72,5.36,1.55,8.07,2.51,1.62.58,3.23,1.22,4.84,1.9,1.62.7,3.23,1.44,4.81,2.23,4.73,2.4,9.32,5.31,13.53,8.86.95.78,1.88,1.61,2.77,2.45.44.43.9.87,1.33,1.32,9.21,9.26,16.07,22.15,17.91,39.99.37,3.69.51,7.16.43,10.48-.03.41-.03.83-.05,1.24-.11,2.57-.32,5-.67,7.35-.18,1.27-.41,2.53-.66,3.77-.29,1.36-.61,2.68-.98,3.96-.26.96-.55,1.91-.86,2.85-.26.73-.51,1.44-.77,2.14-.17.43-.35.86-.51,1.27-.21.54-.44,1.06-.67,1.58-.23.49-.43.96-.66,1.42-.52,1.09-1.07,2.16-1.65,3.17-.2.37-.41.75-.61,1.1-1.07,1.82-2.23,3.52-3.44,5.13-.31.4-.6.78-.92,1.18-.31.37-.61.73-.92,1.12-.31.41-.66.8-1.01,1.19-.78.89-1.59,1.74-2.42,2.56-.44.43-.9.89-1.36,1.32-.98.93-1.97,1.79-2.97,2.6-.98.8-1.97,1.56-2.97,2.28-.03.05-.08.06-.09.09-.63.43-1.24.86-1.84,1.27-.98.64-1.93,1.24-2.85,1.79-.31.21-.63.4-.93.54-.61.35-1.19.69-1.79,1.01-.29.17-.6.34-.87.46-.55.29-1.09.55-1.62.83-.29.14-.55.26-.81.37-.24.12-.51.23-.75.35-.14.06-.26.12-.35.17-.51.2-.99.41-1.45.6-.44.2-.89.37-1.3.54-.15.06-.32.12-.46.18-1.9.69-3.05.99-3.05.99l13.04,14.42,9.57,10.59,16.12,17.85,15.12,16.73,5.19,5.74Z"></path><path class="cls-3" d="m378.84,196.38l-.92.72-65.78-.03s-.06-.06-.12-.14c-.06-.06-.09-.12-.17-.21-.09-.14-.24-.32-.43-.54-.29-.34-.66-.81-1.12-1.38-.06-.06-.09-.12-.15-.18-1.22-1.53-2.97-3.7-5.11-6.31-.03-.05-.06-.09-.11-.15-1.16-1.42-2.42-2.97-3.73-4.59-.46-.54-.9-1.09-1.36-1.65-12.7-15.58-30.93-37.61-32.3-37.61-.72,0-3.21.08-6.18.2-.23.03-.44.03-.67.03-.15,0-.31.02-.47.02-.34.02-.66.02-1.01.05h-.17c-.95.02-1.91.06-2.86.11-.34.02-.66.02-.98.03-.32.03-.63.03-.95.05-1.29.05-2.49.11-3.41.12-.31.02-.63.02-.87.05-.09,0-.18.02-.28.02-.6,0-.93.02-.93.02v.03s-.28,21.38-15.61,36.73c-.28.28-.54.54-.83.81-.55.54-1.12,1.06-1.71,1.56-.02.03-.02,0-.02,0-.6.54-1.19,1.04-1.84,1.53-1.91,1.48-3.99,2.86-6.28,4.15-.99.55-2.04,1.09-3.11,1.59-1.07.49-2.19.96-3.34,1.42h-.02c-.43.17-.87.34-1.32.49-.89.32-1.81.61-2.74.9-.77.23-1.53.46-2.33.66-6.32,1.64-13.68,2.48-22.22,2.2-.02-.89-.72-26.31-.6-46.21.02-3.75.08-7.32.17-10.45,0-.49.02-.96.03-1.44.05-1.44.11-2.76.17-3.96.05-.8.11-1.55.15-2.23.02-.35.06-.69.08-.99.89-9.6,5.57-21.9,14.57-29.77.89-.8,1.84-1.55,2.83-2.23.99-.7,2.02-1.33,3.09-1.91.54-.29,1.09-.57,1.65-.83.98-.46,1.99-.87,3.05-1.22.78-.28,1.59-.51,2.42-.72.61-.15,1.24-.29,1.88-.41,1.91-.37,3.92-.55,6.05-.55s4.24.02,6.28.03c.69,0,1.36,0,2.02.02,3.49.02,6.81.06,9.92.09,3.14.05,6.11.11,8.89.17,9.28.18,16.68.4,22.39.4,1.3,0,2.65-.11,4.01-.29,1.36-.21,2.76-.49,4.1-.89.54-.14,1.1-.34,1.64-.52.8-.26,1.61-.6,2.39-.95h.03c.66-.29,1.29-.61,1.91-.96.02.02.03,0,.03,0,.57-.29,1.09-.61,1.59-.95.4-.23.77-.47,1.12-.73.87-.63,1.68-1.3,2.45-2.05.28-.24.54-.49.77-.77.52-.51.96-1.04,1.38-1.62.26-.28.44-.55.63-.84.23-.29.41-.6.58-.92.2-.31.38-.61.54-.95.34-.63.63-1.29.87-1.97.15-.35.28-.7.35-1.06.11-.31.21-.61.28-.95.05-.09.06-.2.08-.32.09-.31.15-.63.18-.93.06-.37.12-.73.17-1.13.11-.95.17-1.9.17-2.85,0-.55-.02-1.12-.06-1.67-.02-.43-.06-.86-.12-1.3,0-.03,0-.08-.03-.09-.02-.2-.03-.38-.08-.57-.05-.35-.11-.67-.18-1.03-.02-.15-.06-.29-.08-.41-.11-.47-.23-.95-.38-1.42-.31-1.03-.67-2.02-1.15-2.98-.23-.47-.47-.95-.77-1.41-.26-.46-.55-.93-.89-1.36-.02-.02-.05-.05-.05-.06-.61-.87-1.32-1.67-2.11-2.43s-1.65-1.47-2.62-2.1c-.95-.64-1.99-1.21-3.09-1.71-.05,0-.08-.03-.09-.05-.55-.23-1.13-.47-1.73-.67-.31-.11-.61-.21-.93-.32-.18-.05-.35-.11-.54-.15-.14-.05-.28-.08-.43-.12-2.89-.77-6.18-1.15-9.93-.99-18.83.7-92.77.7-92.77.7l7.73-51.99s1.97-.02,5.39-.02c16.67-.11,67.62-.32,87.32.02,2.97.05,6.37.23,10.09.61.92.09,1.87.2,2.82.32.96.12,1.94.24,2.95.4.98.14,1.97.31,3,.49,1.01.18,2.05.37,3.11.58.51.12,1.03.23,1.56.32,1.03.23,2.1.47,3.15.75.54.14,1.07.26,1.61.41,2.66.72,5.36,1.55,8.07,2.51,1.62.58,3.23,1.22,4.84,1.9,1.62.7,3.23,1.44,4.81,2.23,4.73,2.4,9.32,5.31,13.53,8.86.95.78,1.88,1.61,2.77,2.45.44.43.9.87,1.33,1.32,9.21,9.26,16.07,22.15,17.91,39.99.37,3.69.51,7.16.43,10.48-.03.41-.03.83-.05,1.24-.11,2.57-.32,5-.67,7.35-.18,1.27-.41,2.53-.66,3.77-.29,1.36-.61,2.68-.98,3.96-.26.96-.55,1.91-.86,2.85-.26.73-.51,1.44-.77,2.14-.17.43-.35.86-.51,1.27-.21.54-.44,1.06-.67,1.58-.23.49-.43.96-.66,1.42-.52,1.09-1.07,2.16-1.65,3.17-.2.37-.41.75-.61,1.1-1.07,1.82-2.23,3.52-3.44,5.13-.31.4-.6.78-.92,1.18-.31.37-.61.73-.92,1.12-.31.41-.66.8-1.01,1.19-.78.89-1.59,1.74-2.42,2.56-.44.43-.9.89-1.36,1.32-.98.93-1.97,1.79-2.97,2.6-.98.8-1.97,1.56-2.97,2.28-.03.05-.08.06-.09.09-.63.43-1.24.86-1.84,1.27-.98.64-1.93,1.24-2.85,1.79-.31.21-.63.4-.93.54-.61.35-1.19.69-1.79,1.01-.29.17-.6.34-.87.46-.55.29-1.09.55-1.62.83-.29.14-.55.26-.81.37-.24.12-.51.23-.75.35-.14.06-.26.12-.35.17-.51.2-.99.41-1.45.6-.44.2-.89.37-1.3.54-.15.06-.32.12-.46.18-1.9.69-3.05.99-3.05.99l13.04,14.42,9.57,10.59,16.12,17.85,15.12,16.73,5.19,5.74Z"></path><path class="cls-10" d="m379.13,196.59c-.06.11-.14.2-.29.28h-.02s-.26.12-.78.2c-.05,0-.09.03-.12.03-.44.06-50.6,0-50.6,0h-15.18v-.03s-.06-.06-.12-.14c-.06-.06-.09-.12-.17-.21-.09-.14-.24-.32-.43-.54-.29-.34-.66-.81-1.12-1.38-.06-.06-.09-.12-.15-.18-1.81-2.04-3.44-4.16-5.11-6.31-.03-.05-.06-.09-.11-.15-1.16-1.42-2.42-2.97-3.73-4.59-.46-.54-.9-1.09-1.36-1.65-12.7-15.58-30.93-37.61-32.3-37.61-.72,0-3.21.08-6.18.2-.23.03-.44.03-.67.03-.15,0-.31.02-.47.02-.34.02-.66.02-1.01.05h-.17c-.95.02-1.91.06-2.86.11-.34.02-.66.02-.98.03-.32.03-.63.03-.95.05-1.29.05-2.49.11-3.41.12-.31.02-.63.02-.87.05-.09,0-.18.02-.28.02-.6.02-.93.05-.93.05,0,0-.28,21.38-15.61,36.73-.28.28-.54.54-.83.81-.55.54-1.12,1.06-1.71,1.56-.02.03-.02,0-.02,0-.6.54-1.19,1.04-1.84,1.53-1.9,1.48-3.98,2.89-6.28,4.15-.99.55-2.04,1.09-3.11,1.59-1.07.49-2.19.96-3.34,1.42h-.02c-.43.17-.87.34-1.32.49-.89.32-1.81.61-2.74.9-.77.23-1.53.46-2.33.66-6.32,1.67-13.68,2.51-22.22,2.23v-.03c-.02-.89-.72-26.31-.6-46.21.02-3.75.08-7.32.17-10.45,0-.49.02-.96.03-1.44.05-1.44.11-2.76.17-3.96.05-.8.11-1.55.15-2.23.02-.35.06-.69.08-.99.89-9.6,5.57-21.9,14.57-29.77.89-.8,1.84-1.53,2.83-2.23.99-.67,2.02-1.32,3.09-1.91.54-.29,1.09-.57,1.65-.83.98-.46,1.99-.86,3.05-1.22.78-.28,1.59-.51,2.42-.72.61-.15,1.24-.29,1.88-.41,1.91-.35,3.92-.54,6.05-.54s4.24,0,6.28.02c.69,0,1.36,0,2.02.02,3.49.02,6.81.06,9.92.09,3.14.06,6.11.12,8.89.17,9.28.21,16.68.41,22.39.41,1.3,0,2.65-.11,4.01-.31,1.36-.18,2.76-.47,4.1-.89.54-.14,1.1-.34,1.64-.52.8-.26,1.61-.6,2.39-.95h.03c.66-.29,1.29-.61,1.91-.96.02.02.03,0,.03,0,.57-.29,1.09-.61,1.59-.95.4-.23.77-.47,1.12-.73.87-.63,1.68-1.3,2.45-2.05.28-.24.54-.49.77-.77.52-.51.96-1.04,1.38-1.62.26-.28.44-.55.63-.84.23-.29.41-.6.58-.92.2-.31.38-.61.54-.95.34-.63.63-1.29.87-1.97.15-.35.28-.7.35-1.06.11-.31.21-.61.28-.95.05-.09.06-.2.08-.32.09-.31.15-.63.18-.93.06-.37.12-.73.17-1.13.11-.95.17-1.9.17-2.85,0-.55-.02-1.12-.06-1.67-.02-.43-.06-.86-.12-1.3,0-.03,0-.08-.03-.09-.02-.2-.03-.38-.08-.57-.05-.35-.11-.67-.18-1.03-.02-.15-.06-.29-.08-.41-.11-.47-.23-.95-.38-1.42-.31-1.03-.67-2.02-1.15-2.98-.23-.47-.47-.95-.77-1.41-.26-.46-.55-.93-.89-1.36-.02-.02-.05-.05-.05-.06-.63-.87-1.33-1.67-2.11-2.43-.8-.77-1.65-1.47-2.62-2.1-.95-.64-1.99-1.21-3.09-1.71-.05,0-.08-.03-.09-.05-.55-.23-1.13-.47-1.73-.67-.31-.11-.61-.21-.93-.32-.18-.05-.35-.11-.54-.15-.14-.03-.28-.08-.43-.11v-.02C270.14,24.28,234.98,2.85,192.79,1c16.67-.11,67.62-.32,87.32.02,2.97.05,6.37.23,10.09.61.92.09,1.87.2,2.82.32.96.12,1.94.24,2.95.4.98.14,1.97.31,3,.49,1.01.18,2.05.37,3.11.58.51.12,1.03.23,1.56.32,1.03.24,2.1.47,3.15.75.54.14,1.07.26,1.61.41,2.66.72,5.36,1.55,8.07,2.51,1.62.58,3.23,1.22,4.84,1.9,1.62.7,3.23,1.44,4.81,2.23,4.73,2.4,9.32,5.31,13.53,8.86.95.78,1.88,1.61,2.77,2.45.44.43.9.87,1.33,1.32,9.21,9.26,16.07,22.15,17.91,39.99.37,3.69.51,7.16.43,10.48-.03.41-.03.83-.05,1.24-.11,2.57-.32,5-.67,7.35-.18,1.27-.41,2.53-.66,3.77-.29,1.36-.61,2.68-.98,3.96-.26.96-.55,1.91-.86,2.85-.26.73-.51,1.44-.77,2.14-.17.43-.35.86-.51,1.27-.21.54-.44,1.06-.67,1.58-.23.49-.43.96-.66,1.42-.52,1.09-1.07,2.16-1.65,3.17-.2.37-.41.75-.61,1.1-1.07,1.82-2.23,3.52-3.44,5.13-.31.4-.6.78-.92,1.18-.31.37-.61.73-.92,1.12-.31.41-.66.8-1.01,1.19-.78.89-1.59,1.74-2.42,2.56-.44.43-.9.89-1.36,1.32-.98.93-1.97,1.79-2.97,2.6-.98.8-1.97,1.56-2.97,2.28-.03.05-.08.06-.09.09-.63.43-1.24.86-1.84,1.27-.98.64-1.93,1.24-2.85,1.79-.31.21-.63.4-.93.54-.61.35-1.19.69-1.79,1.01-.29.17-.6.34-.87.46-.55.29-1.09.55-1.62.83-.29.14-.55.26-.81.37-.24.12-.51.23-.75.35-.14.06-.26.12-.35.17-.51.2-.99.41-1.45.6-.44.2-.89.37-1.3.54-.15.06-.32.12-.46.18-1.9.69-3.05.99-3.05.99l13.04,14.42s.02.08.02.11v.05c.46,2.14.93,4.27,2.13,6.11,1.71,2.57,4.38,3.55,7.19,4.27.08.02.15.05.23.06l16.12,17.85c.23.37.44.7.69,1.06,0,.03.02.06.05.09l.03.06c2.53,3.81,5.53,7.22,8.75,10.48.9.92,2.27,2.13,3.75,3.41l.02.02c.6.52,1.22,1.07,1.84,1.61,3.06,2.66,5.92,5.28,5.48,5.95Z"></path></g><path class="cls-4" d="m64.9,197.14S127.32,130.81,139.03,1.09h55.6s4.88,126.8-64.86,196.05h-64.86Z"></path><path class="cls-5" d="m129.8,197.14S67.38,130.81,55.67,1.09H.07s-4.88,126.8,64.86,196.05h64.86Z"></path><g class="cls-2"><path class="cls-4" d="m64.9,197.14S127.32,130.81,139.03,1.09h55.6s4.88,126.8-64.86,196.05h-64.86Z"></path><path class="cls-11" d="m129.8,197.14S67.38,130.81,55.67,1.09H.07s-4.88,126.8,64.86,196.05h64.86Z"></path></g></g></g></g></svg>